<svg width="201" height="33" viewBox="0 0 201 33" fill="none" xmlns="http://www.w3.org/2000/svg">
<path d="M150.887 19.014V1.89999H155.187V18.842C155.187 25.507 158.24 28.517 163.658 28.517C169.076 28.517 172.172 25.507 172.172 18.842V1.89999H176.343V19.014C176.343 27.743 171.57 32.345 163.615 32.345C155.703 32.344 150.887 27.743 150.887 19.014ZM181.675 29.593L183.395 26.325C185.776 27.8719 188.556 28.6933 191.395 28.689C195.222 28.689 196.813 27.528 196.813 25.589C196.813 20.472 182.408 24.901 182.408 15.828C182.408 11.743 186.063 8.99099 191.908 8.99099C194.808 8.9414 197.67 9.65344 200.208 11.056L198.443 14.327C196.473 13.0958 194.186 12.468 191.864 12.521C188.252 12.521 186.489 13.854 186.489 15.66C186.489 21.035 200.937 16.649 200.937 25.507C200.937 29.635 197.153 32.258 191.09 32.258C187.308 32.258 183.567 31.1 181.675 29.592V29.593ZM121.775 25.121V12.607H117.905V9.20699H121.775V4.22199H125.903V9.20999H132.443V12.61H125.907V24.948C125.907 27.399 127.197 28.775 129.476 28.775C130.641 28.7881 131.777 28.4095 132.701 27.7L133.991 30.666C132.562 31.7564 130.8 32.3186 129.003 32.257C124.399 32.258 121.776 29.721 121.776 25.12L121.775 25.121ZM91.847 22.321V9.20999H95.975V21.852C95.975 26.324 98.211 28.56 102.124 28.56C106.424 28.56 109.176 25.894 109.176 20.992V9.20999H113.304V32H109.391V28.56C108.494 29.7546 107.322 30.7149 105.975 31.3591C104.627 32.0033 103.144 32.3124 101.651 32.26C95.761 32.258 91.848 29.033 91.848 22.325L91.847 22.321ZM62.647 20.601C62.647 13.807 67.678 8.99099 74.515 8.99099C81.352 8.99099 86.343 13.811 86.343 20.6C86.343 27.389 81.355 32.253 74.519 32.253C67.683 32.253 62.651 27.4 62.651 20.6L62.647 20.601ZM66.818 20.601C66.818 25.46 70.129 28.643 74.518 28.643C78.907 28.643 82.172 25.461 82.172 20.601C82.172 15.741 78.904 12.601 74.518 12.601C70.132 12.601 66.822 15.746 66.822 20.6L66.818 20.601ZM39.388 28.388V32H35.432V0.0939941H39.559V12.65C40.5056 11.4598 41.7189 10.5089 43.1007 9.87401C44.4826 9.23911 45.9943 8.938 47.514 8.99499C54.18 8.99499 59.043 13.639 59.043 20.6C59.043 27.561 54.18 32.258 47.515 32.258C45.9476 32.3239 44.3878 32.0057 42.9714 31.3312C41.555 30.6567 40.3248 29.6464 39.388 28.388ZM39.517 20.605C39.517 25.464 42.828 28.647 47.172 28.647C51.558 28.647 54.872 25.465 54.872 20.605C54.872 15.745 51.561 12.605 47.172 12.605C42.828 12.607 39.517 15.746 39.517 20.6V20.605ZM27.043 32L23.732 24.475H7.732L4.429 32H0L13.63 1.89999H17.887L31.562 32H27.043ZM9.243 21.035H22.231L15.738 6.28599L9.243 21.035Z" fill="url(#paint0_linear_1_21)"/>
<defs>
<linearGradient id="paint0_linear_1_21" x1="100.468" y1="0.0939941" x2="100.468" y2="32.345" gradientUnits="userSpaceOnUse">
<stop stop-color="#E62222"/>
<stop offset="0.05" stop-color="#D33333"/>
<stop offset="0.523" stop-color="#EF6D35"/>
<stop offset="0.778" stop-color="#EF6D35"/>
<stop offset="1" stop-color="#EF6D35"/>
</linearGradient>
</defs>
</svg>
