<svg width="640" height="32" viewBox="0 0 640 32" fill="none" xmlns="http://www.w3.org/2000/svg">
<path d="M616.405 28.001L617.995 24.648C620.798 26.9321 624.312 28.1642 627.928 28.131C633.128 28.131 635.367 26.11 635.367 23.487C635.367 16.134 617.135 20.778 617.135 9.597C617.135 4.953 620.747 0.997006 628.659 0.997006C632.074 0.93417 635.434 1.86002 638.334 3.66301L636.916 7.103C634.449 5.52479 631.587 4.67519 628.659 4.652C623.543 4.652 621.349 6.80201 621.349 9.42501C621.349 16.778 639.581 12.177 639.581 23.225C639.581 27.825 635.881 31.782 627.928 31.782C623.328 31.785 618.813 30.241 616.405 28.001ZM253.012 28.001L254.602 24.648C257.405 26.9321 260.919 28.1642 264.535 28.131C269.735 28.131 271.974 26.11 271.974 23.487C271.974 16.134 253.742 20.778 253.742 9.597C253.742 4.953 257.354 0.997006 265.266 0.997006C268.681 0.93417 272.041 1.86002 274.941 3.66301L273.523 7.103C271.056 5.52474 268.194 4.67514 265.266 4.652C260.149 4.652 257.956 6.80201 257.956 9.42501C257.956 16.778 276.188 12.177 276.188 23.225C276.188 27.825 272.488 31.782 264.535 31.782C259.935 31.785 255.42 30.241 253.012 28.001ZM116.057 16.391C116.057 7.57601 122.85 0.997006 132.096 0.997006C141.254 0.997006 148.048 7.53301 148.048 16.391C148.048 25.249 141.257 31.785 132.097 31.785C122.851 31.785 116.057 25.206 116.057 16.391ZM120.357 16.391C120.331 18.7088 120.993 20.9822 122.261 22.9228C123.529 24.8634 125.344 26.3837 127.478 27.2908C129.611 28.1979 131.965 28.451 134.242 28.0179C136.519 27.5848 138.617 26.4851 140.268 24.8583C141.919 23.2314 143.05 21.1508 143.517 18.8803C143.983 16.6099 143.765 14.2519 142.89 12.1055C142.015 9.95922 140.521 8.12127 138.6 6.82488C136.678 5.52849 134.415 4.83208 132.097 4.82401C130.555 4.76678 129.017 5.02551 127.578 5.58431C126.139 6.1431 124.83 6.99016 123.73 8.07344C122.631 9.15673 121.764 10.4534 121.184 11.8837C120.604 13.3141 120.323 14.8479 120.357 16.391ZM64.672 28.001L66.263 24.648C69.0661 26.9326 72.58 28.1647 76.196 28.131C81.396 28.131 83.634 26.11 83.634 23.487C83.634 16.134 65.402 20.778 65.402 9.597C65.402 4.953 69.015 0.997006 76.926 0.997006C80.3406 0.93417 83.7005 1.86002 86.601 3.66301L85.182 7.103C82.7158 5.52477 79.8539 4.67516 76.926 4.652C71.809 4.652 69.616 6.80201 69.616 9.42501C69.616 16.778 87.847 12.177 87.847 23.225C87.847 27.825 84.147 31.782 76.195 31.782C71.595 31.785 67.081 30.241 64.672 28.001ZM33.157 18.455V1.34101H37.457V18.283C37.457 24.948 40.51 27.958 45.928 27.958C51.346 27.958 54.442 24.948 54.442 18.283V1.34101H58.613V18.455C58.613 27.184 53.84 31.785 45.885 31.785C37.969 31.785 33.157 27.184 33.157 18.455ZM0 16.391C0 7.49101 6.794 0.997006 15.953 0.997006C18.0841 0.9126 20.2084 1.28745 22.1819 2.09614C24.1554 2.90483 25.9319 4.12844 27.391 5.68401L24.591 8.39301C23.5138 7.23023 22.2011 6.31046 20.7404 5.69504C19.2796 5.07961 17.7045 4.78267 16.12 4.82401C9.326 4.82401 4.295 9.72401 4.295 16.391C4.295 23.058 9.326 27.959 16.12 27.959C17.7087 27.9923 19.2862 27.6868 20.7477 27.063C22.2092 26.4392 23.521 25.5113 24.596 24.341L27.396 27.05C25.9335 28.6157 24.1513 29.8485 22.1703 30.6646C20.1894 31.4808 18.056 31.8612 15.915 31.78C6.794 31.785 0 25.292 0 16.391ZM608.02 31.441L601.527 22.195C600.927 22.238 600.28 22.281 599.634 22.281H592.195V31.441H587.895V1.34101H599.634C607.46 1.34101 612.19 5.297 612.19 11.833C612.288 13.9248 611.692 15.9904 610.494 17.7084C609.297 19.4264 607.565 20.7007 605.569 21.333L612.707 31.441H608.02ZM592.196 18.627H599.506C605.006 18.627 607.891 16.133 607.891 11.833C607.891 7.533 605.01 5.08201 599.506 5.08201H592.196V18.627ZM559.086 31.441V1.34101H580.328V5.08201H563.387V14.327H578.48V17.982H563.387V27.7H580.931V31.441H559.086ZM546.53 31.441L528.47 8.99501V31.441H524.17V1.34101H527.696L545.757 23.787V1.34101H550.057V31.441H546.53ZM504.906 31.441V5.08201H494.586V1.34101H519.486V5.08201H509.166V31.441H504.906ZM488.222 31.441L481.729 22.195C481.129 22.238 480.482 22.281 479.836 22.281H472.398V31.441H468.098V1.34101H479.837C487.663 1.34101 492.394 5.297 492.394 11.833C492.492 13.925 491.895 15.9906 490.698 17.7086C489.5 19.4267 487.769 20.7008 485.772 21.333L492.909 31.441H488.222ZM472.398 18.627H479.708C485.208 18.627 488.093 16.133 488.093 11.833C488.093 7.533 485.212 5.08201 479.708 5.08201H472.398V18.627ZM459.112 31.441L455.801 23.915H439.801L436.493 31.441H432.064L445.695 1.34101H449.957L463.626 31.441H459.112ZM441.312 20.475H454.297L447.804 5.72601L441.312 20.475ZM407.511 31.441V1.34101H419.251C427.077 1.34101 431.807 5.297 431.807 11.833C431.807 18.369 427.077 22.325 419.251 22.325H411.812V31.441H407.511ZM411.811 18.584H419.121C424.621 18.584 427.506 16.133 427.506 11.833C427.506 7.533 424.625 5.08201 419.121 5.08201H411.811V18.584ZM360.427 31.441V1.34101H373.112C382.787 1.34101 389.366 7.44701 389.366 16.391C389.366 25.335 382.786 31.441 373.111 31.441H360.427ZM364.727 27.7H372.857C380.296 27.7 385.069 23.141 385.069 16.391C385.069 9.64101 380.292 5.08201 372.857 5.08201H364.73L364.727 27.7ZM347.87 31.441L329.81 8.99501V31.441H325.51V1.34101H329.036L347.096 23.787V1.34101H351.396V31.441H347.87ZM316.523 31.441L313.213 23.915H297.213L293.905 31.441H289.476L303.107 1.34101H307.364L321.038 31.441H316.523ZM298.723 20.475H311.707L305.214 5.72601L298.723 20.475ZM244.627 31.441L238.134 22.195C237.534 22.238 236.887 22.281 236.241 22.281H228.803V31.441H224.503V1.34101H236.242C244.068 1.34101 248.799 5.297 248.799 11.833C248.897 13.925 248.3 15.9906 247.103 17.7086C245.905 19.4267 244.174 20.7008 242.177 21.333L249.314 31.441H244.627ZM228.803 18.627H236.113C241.613 18.627 244.498 16.133 244.498 11.833C244.498 7.533 241.617 5.08201 236.113 5.08201H228.803V18.627ZM195.693 31.441V1.34101H216.935V5.08201H199.994V14.327H215.087V17.982H199.994V27.7H217.537V31.441H195.693ZM182.535 31.441L182.492 9.51101L171.613 27.786H169.636L158.757 9.64101V31.441H154.629V1.34101H158.157L170.713 22.497L183.094 1.34101H186.62L186.663 31.441H182.535ZM99.674 31.441V5.08201H89.357V1.34101H114.257V5.08201H103.937V31.441H99.674Z" fill="url(#paint0_linear_1_33)"/>
<defs>
<linearGradient id="paint0_linear_1_33" x1="319.79" y1="0.985352" x2="319.79" y2="31.7907" gradientUnits="userSpaceOnUse">
<stop stop-color="#E62222"/>
<stop offset="0.05" stop-color="#D33333"/>
<stop offset="0.523" stop-color="#EF6D35"/>
<stop offset="0.778" stop-color="#EF6D35"/>
<stop offset="1" stop-color="#EF6D35"/>
</linearGradient>
</defs>
</svg>
