<svg width="77" height="77" viewBox="0 0 77 77" fill="none" xmlns="http://www.w3.org/2000/svg">
<path d="M37.603 39.101C37.8021 39.2996 38.0718 39.4111 38.353 39.4111C38.6342 39.4111 38.904 39.2996 39.103 39.101L52.895 25.216C53.0906 25.0195 53.2016 24.7542 53.2041 24.477L53.2691 17.21L62.4411 8.03898V12.63C62.4411 12.9116 62.5529 13.1818 62.7521 13.3809C62.9513 13.5801 63.2214 13.692 63.5031 13.692H68.877L58.7271 23.841C58.5443 24.0431 58.4462 24.3076 58.4531 24.58C58.4599 24.8523 58.5712 25.1116 58.7638 25.3042C58.9564 25.4969 59.2157 25.6081 59.4881 25.6149C59.7604 25.6218 60.025 25.5237 60.2271 25.341L72.19 13.378C72.3386 13.2295 72.4397 13.0402 72.4807 12.8342C72.5217 12.6282 72.5007 12.4146 72.4203 12.2206C72.3399 12.0265 72.2038 11.8606 72.0291 11.7439C71.8545 11.6272 71.6491 11.565 71.439 11.565H64.5631V5.472C64.5631 5.26194 64.5008 5.05657 64.3841 4.88191C64.2674 4.70725 64.1016 4.57113 63.9075 4.49074C63.7134 4.41035 63.4999 4.38933 63.2938 4.43031C63.0878 4.4713 62.8985 4.57245 62.75 4.72099L51.46 16.016C51.2631 16.213 51.1514 16.4794 51.1491 16.758L51.0841 24.026L37.595 37.596C37.4965 37.6952 37.4185 37.8129 37.3656 37.9423C37.3126 38.0717 37.2857 38.2103 37.2865 38.3502C37.2872 38.49 37.3155 38.6283 37.3698 38.7572C37.4242 38.886 37.5034 39.0028 37.603 39.101Z" fill="#EC660B"/>
<path d="M38.347 25.43C38.6287 25.43 38.8988 25.3181 39.098 25.1189C39.2971 24.9198 39.409 24.6496 39.409 24.368C39.409 24.0863 39.2971 23.8162 39.098 23.6171C38.8988 23.4179 38.6287 23.306 38.347 23.306C35.373 23.306 32.4657 24.1879 29.9929 25.8402C27.5201 27.4925 25.5928 29.841 24.4546 32.5886C23.3165 35.3363 23.0187 38.3596 23.5989 41.2765C24.1791 44.1934 25.6113 46.8728 27.7142 48.9758C29.8172 51.0787 32.4966 52.5108 35.4134 53.091C38.3303 53.6713 41.3538 53.3735 44.1014 52.2353C46.8491 51.0972 49.1976 49.17 50.8498 46.6971C52.5021 44.2243 53.384 41.317 53.384 38.343C53.384 38.0613 53.2722 37.7912 53.073 37.592C52.8738 37.3929 52.6037 37.281 52.322 37.281C52.0404 37.281 51.7703 37.3929 51.5711 37.592C51.3719 37.7912 51.26 38.0613 51.26 38.343C51.26 40.897 50.5027 43.3935 49.0838 45.5171C47.6649 47.6406 45.6482 49.2957 43.2886 50.2731C40.9291 51.2504 38.3327 51.5061 35.8278 51.0079C33.3229 50.5096 31.0221 49.2798 29.2162 47.4739C27.4103 45.6679 26.1804 43.367 25.6821 40.8622C25.1839 38.3573 25.4396 35.761 26.417 33.4014C27.3943 31.0419 29.0494 29.0251 31.173 27.6062C33.2965 26.1873 35.7931 25.43 38.347 25.43Z" fill="#EC660B"/>
<path d="M40.863 12.845C40.8788 12.5639 40.7824 12.288 40.5949 12.078C40.4074 11.8679 40.1441 11.741 39.863 11.725C39.363 11.697 38.852 11.683 38.348 11.683C33.0744 11.683 27.9192 13.2468 23.5343 16.1767C19.1494 19.1065 15.7318 23.2709 13.7137 28.1431C11.6955 33.0153 11.1675 38.3765 12.1963 43.5489C13.2252 48.7212 15.7647 53.4722 19.4937 57.2013C23.2227 60.9303 27.9738 63.4698 33.1461 64.4986C38.3184 65.5275 43.6797 64.9994 48.5519 62.9813C53.4241 60.9632 57.5885 57.5456 60.5183 53.1607C63.4482 48.7759 65.012 43.6206 65.012 38.347C65.012 37.714 64.989 37.074 64.945 36.447C64.9253 36.166 64.7947 35.9044 64.582 35.7196C64.3693 35.5349 64.092 35.4422 63.811 35.462C63.53 35.4818 63.2684 35.6123 63.0836 35.825C62.8989 36.0376 62.8063 36.315 62.826 36.596C62.867 37.175 62.887 37.764 62.887 38.348C62.887 43.2015 61.4478 47.9461 58.7513 51.9817C56.0548 56.0173 52.2222 59.1626 47.7381 61.02C43.254 62.8774 38.3198 63.3633 33.5595 62.4165C28.7992 61.4696 24.4266 59.1324 20.9946 55.7004C17.5626 52.2684 15.2254 47.8958 14.2785 43.1355C13.3316 38.3752 13.8176 33.441 15.675 28.9569C17.5324 24.4728 20.6777 20.6402 24.7133 17.9437C28.7489 15.2473 33.4935 13.808 38.347 13.808C38.811 13.808 39.281 13.821 39.747 13.847C40.0278 13.8617 40.3029 13.7645 40.5121 13.5767C40.7213 13.3889 40.8475 13.1257 40.863 12.845Z" fill="#EC660B"/>
<path d="M75.024 27.118C74.9847 26.983 74.9189 26.8571 74.8305 26.7477C74.7421 26.6384 74.6329 26.5476 74.5091 26.4808C74.3854 26.4139 74.2496 26.3724 74.1097 26.3584C73.9697 26.3445 73.8284 26.3585 73.6939 26.3996C73.5594 26.4407 73.4345 26.5082 73.3262 26.598C73.218 26.6878 73.1287 26.7982 73.0635 26.9228C72.9983 27.0474 72.9585 27.1837 72.9464 27.3238C72.9343 27.4639 72.9501 27.605 72.993 27.739C75.3471 35.4484 75.0595 43.723 72.1758 51.2504C69.2922 58.7777 63.9777 65.1266 57.0754 69.29C50.173 73.4534 42.0781 75.1928 34.0748 74.2323C26.0715 73.2718 18.618 69.6664 12.8968 63.988C7.17559 58.3097 3.51427 50.8835 2.49363 42.8876C1.47299 34.8918 3.15149 26.784 7.26285 19.8506C11.3742 12.9171 17.683 7.55503 25.1885 4.6149C32.6939 1.67477 40.9662 1.32498 48.693 3.621C48.9627 3.70011 49.2527 3.6691 49.4995 3.53479C49.7464 3.40048 49.9299 3.17383 50.01 2.90445C50.09 2.63508 50.06 2.34494 49.9266 2.09763C49.7931 1.85032 49.5671 1.66598 49.298 1.58499C41.1172 -0.845035 32.3592 -0.473826 24.4133 2.63971C16.4675 5.75325 9.78873 11.4308 5.43662 18.7718C1.08451 26.1128 -0.691786 34.6968 0.389532 43.1621C1.47085 51.6274 5.34786 59.4893 11.4055 65.5006C17.4632 71.5119 25.3547 75.3284 33.828 76.3446C42.3014 77.3608 50.8715 75.5186 58.1788 71.1102C65.4862 66.7018 71.1122 59.9796 74.1646 52.01C77.217 44.0405 77.5209 35.2799 75.028 27.118H75.024Z" fill="#EC660B"/>
</svg>
