<svg width="277" height="58" viewBox="0 0 277 58" fill="none" xmlns="http://www.w3.org/2000/svg">
<path d="M28.295 0.417038C28.889 0.489038 29.482 0.556038 30.075 0.633038C34.5599 1.21428 38.8129 2.96564 42.4066 5.71116C46.0003 8.45668 48.8081 12.0997 50.548 16.274C50.599 16.397 50.648 16.523 50.713 16.696H50.256C47.556 16.696 44.856 16.696 42.156 16.703C42.0534 16.7143 41.9498 16.6929 41.8601 16.6419C41.7703 16.5909 41.6989 16.5129 41.656 16.419C40.3213 14.0947 38.3234 12.2214 35.918 11.039C35.302 10.733 34.741 10.318 34.126 10.01C32.206 9.09582 30.114 8.59923 27.988 8.55304C26.6868 8.43098 25.3751 8.48413 24.088 8.71104C21.1267 9.20888 18.3569 10.5039 16.076 12.457C13.4224 14.7864 11.3941 17.7429 10.176 21.057C9.30477 23.6104 9.09119 26.3423 9.55499 29C9.88057 31.1241 10.5507 33.1809 11.539 35.089C12.892 37.5138 14.8468 39.5492 17.215 40.999C17.467 41.164 17.561 41.311 17.474 41.599C17.4386 41.7713 17.4278 41.9477 17.442 42.123C17.442 44.6604 17.442 47.198 17.442 49.736V50.212C16.842 49.948 16.279 49.733 15.742 49.466C7.92399 45.55 2.96999 39.341 1.44199 30.723C-0.129013 21.844 2.42499 14.09 8.81999 7.71104C12.7079 3.83995 17.7648 1.36036 23.206 0.65704C23.87 0.55704 24.539 0.495039 25.206 0.415039L28.295 0.417038Z" fill="white"/>
<path d="M269.064 15.7911V23.1401H268.525C255.592 23.1401 242.657 23.1364 229.72 23.1291C229.53 23.1145 229.339 23.1536 229.17 23.242C229.001 23.3304 228.86 23.4645 228.764 23.6291C228.379 24.1435 228.127 24.745 228.031 25.3801C228.004 25.853 228.119 26.3231 228.362 26.7301C228.604 27.137 228.962 27.4623 229.391 27.6641C229.536 27.7018 229.686 27.714 229.835 27.7001C240.359 27.7001 250.883 27.7031 261.407 27.7091C261.718 27.7104 262.025 27.7711 262.313 27.8881C264.344 28.6742 266.189 29.8766 267.728 31.4181C268.447 32.1328 269.01 32.9878 269.384 33.93C269.758 34.8721 269.933 35.8811 269.9 36.8941C269.907 38.4909 269.631 40.0763 269.086 41.5771C268.575 43.0121 267.676 44.2775 266.489 45.233C265.303 46.1884 263.875 46.7966 262.364 46.9901C261.769 47.0875 261.167 47.1343 260.564 47.1301C247.564 47.1374 234.566 47.1394 221.57 47.1361H221.07V39.4481H221.576C234.235 39.4481 246.893 39.4437 259.552 39.4351C259.962 39.4227 260.364 39.3177 260.728 39.1281C260.925 39.049 261.104 38.9293 261.252 38.7768C261.4 38.6242 261.515 38.4422 261.588 38.2426C261.661 38.043 261.692 37.8302 261.677 37.618C261.663 37.4059 261.604 37.1991 261.505 37.0111C261.24 36.4856 260.931 35.9838 260.581 35.5111C260.504 35.436 260.404 35.3894 260.297 35.3791C260.185 35.3662 260.072 35.3646 259.959 35.3741C249.51 35.3741 239.062 35.3707 228.613 35.3641C228.178 35.3609 227.746 35.2797 227.34 35.1241C225.47 34.4365 223.79 33.3171 222.435 31.8571C221.452 30.8061 220.725 29.5431 220.309 28.166C219.893 26.7888 219.799 25.3343 220.035 23.9151C220.24 22.6264 220.727 21.3988 221.461 20.3196C222.195 19.2404 223.157 18.3362 224.28 17.6711C225.541 16.8432 226.928 16.2261 228.387 15.8441C228.532 15.8066 228.681 15.7888 228.831 15.7911C242.118 15.7911 255.404 15.7911 268.691 15.7911H269.064Z" fill="white"/>
<path d="M58.436 15.886H66.11V16.347C66.11 21.635 66.046 26.924 66.138 32.211C66.1103 33.4252 66.3874 34.6269 66.9437 35.7065C67.5001 36.786 68.3181 37.709 69.323 38.391C70.2301 39.013 71.3072 39.3396 72.407 39.326C78.949 39.315 85.492 39.326 92.034 39.313C92.2946 39.315 92.5518 39.2543 92.784 39.136C94.0469 38.524 95.1091 37.5646 95.8459 36.3703C96.5827 35.1759 96.9636 33.7962 96.944 32.393C97.015 27.85 97.103 23.306 97.176 18.763C97.191 17.812 97.176 16.863 97.176 15.888H104.613V16.281C104.613 21.619 104.632 26.958 104.601 32.296C104.534 33.8792 104.209 35.4407 103.638 36.919C102.749 39.766 101.048 42.2915 98.744 44.185C96.6633 45.8345 94.1295 46.8111 91.48 46.985C90.172 47.085 88.849 47.013 87.534 47.013C82.348 47.013 77.161 46.983 71.976 47.033C70.5191 47.0422 69.0776 46.7352 67.751 46.133C65.6187 45.2194 63.7247 43.8284 62.215 42.0673C60.7052 40.3061 59.62 38.2218 59.043 35.975C58.6239 34.5673 58.4143 33.1057 58.421 31.637C58.456 26.55 58.434 21.463 58.434 16.376L58.436 15.886Z" fill="white"/>
<path d="M109.99 45.7071C110.643 44.5801 111.263 43.5071 111.885 42.4351C117.232 33.2258 122.578 24.0154 127.921 14.8041C127.98 14.6781 128.077 14.5738 128.199 14.506C128.32 14.4382 128.46 14.4102 128.598 14.4261C131.561 14.4387 134.524 14.4387 137.487 14.4261C137.614 14.4156 137.741 14.4445 137.85 14.5087C137.96 14.5729 138.047 14.6695 138.1 14.7851C144.159 24.9738 150.223 35.1601 156.29 45.3441C156.352 45.4441 156.409 45.5571 156.49 45.7051C156.33 45.7141 156.211 45.7261 156.09 45.7261C153.416 45.7261 150.741 45.7211 148.067 45.7351C147.946 45.7465 147.825 45.7185 147.721 45.6555C147.618 45.5924 147.537 45.4976 147.492 45.3851C146.371 43.3401 145.232 41.3041 144.11 39.2591C144.062 39.1414 143.979 39.0419 143.871 38.9749C143.763 38.9079 143.637 38.8768 143.51 38.8861C136.377 38.8967 129.243 38.8967 122.11 38.8861C121.988 38.8738 121.866 38.9007 121.761 38.963C121.655 39.0252 121.573 39.1195 121.525 39.2321C120.393 41.3001 119.245 43.3591 118.105 45.4221C118.005 45.6031 117.917 45.7341 117.661 45.7331C115.187 45.7211 112.714 45.7261 110.24 45.7251C110.182 45.7261 110.12 45.7141 109.99 45.7071ZM140.373 32.6421L133.102 20.0421L125.833 32.6421H140.373Z" fill="white"/>
<path d="M165.807 14.151H172.607V37.715H213.781V45.464H165.807V14.151Z" fill="white"/>
<path d="M22.67 50.501V23.953H30.021V43.729C30.89 43.502 31.721 43.32 32.521 43.069C35.6529 42.1859 38.4022 40.2862 40.336 37.669C41.8436 35.5245 42.8047 33.0444 43.136 30.444C43.4291 28.4697 43.4412 26.4638 43.172 24.486H50.209C50.232 24.847 50.27 25.216 50.277 25.586C50.4124 28.9643 49.9956 32.342 49.043 35.586C48.1442 38.6086 46.533 41.3712 44.3448 43.6417C42.1566 45.9122 39.4553 47.6243 36.468 48.634C33.4616 49.7439 30.2976 50.368 27.095 50.483C25.639 50.554 24.172 50.501 22.67 50.501Z" fill="white"/>
<path d="M109.99 57.3071V50.5291H110.946L113.118 53.9581C113.571 54.6639 113.978 55.3989 114.335 56.1581L114.355 56.1481C114.275 55.2431 114.255 54.4181 114.255 53.3631V50.5291H115.08V57.3071H114.197L112.045 53.8681C111.578 53.1398 111.155 52.3841 110.778 51.6051L110.748 51.6151C110.798 52.4701 110.818 53.2841 110.818 54.4151V57.315L109.99 57.3071Z" fill="white"/>
<path d="M120.116 54.1291H117.481V56.5731H120.417V57.3071H116.601V50.5291H120.261V51.2631H117.481V53.4051H120.116V54.1291Z" fill="white"/>
<path d="M125.264 57.3071L124.399 55.8071C124.047 55.2341 123.826 54.8621 123.614 54.4701H123.594C123.403 54.8621 123.212 55.2241 122.86 55.8181L122.045 57.3061H121.038L123.11 53.8761L121.119 50.5271H122.138L123.033 52.1161C123.284 52.5581 123.476 52.9001 123.657 53.2621H123.687C123.878 52.8621 124.049 52.5481 124.3 52.1161L125.225 50.5271H126.23L124.168 53.8271L126.28 57.3071H125.264Z" fill="white"/>
<path d="M128.662 51.2731H126.601V50.5291H131.619V51.2731H129.548V57.3071H128.663L128.662 51.2731Z" fill="white"/>
<path d="M141.794 57.0061C141.126 57.246 140.423 57.3718 139.713 57.3781C139.25 57.423 138.783 57.3658 138.345 57.2107C137.906 57.0557 137.507 56.8064 137.175 56.4805C136.844 56.1546 136.587 55.7599 136.425 55.3243C136.262 54.8887 136.196 54.4227 136.233 53.9591C136.217 53.4806 136.303 53.0042 136.484 52.5611C136.665 52.118 136.938 51.7182 137.285 51.3878C137.631 51.0574 138.043 50.8038 138.495 50.6438C138.946 50.4838 139.426 50.4209 139.903 50.4591C140.482 50.4455 141.057 50.5517 141.593 50.7711L141.382 51.4851C140.909 51.279 140.397 51.1793 139.882 51.1931C139.517 51.1645 139.15 51.2154 138.806 51.3423C138.462 51.4692 138.15 51.6691 137.891 51.9282C137.632 52.1873 137.433 52.4994 137.306 52.8431C137.179 53.1868 137.128 53.5539 137.157 53.9191C137.12 54.277 137.161 54.6387 137.278 54.9791C137.394 55.3194 137.583 55.6304 137.832 55.8905C138.081 56.1506 138.383 56.3536 138.718 56.4855C139.052 56.6173 139.412 56.6749 139.771 56.6541C140.168 56.6762 140.566 56.6145 140.938 56.4731V54.4471H139.562V53.7471H141.794V57.0061Z" fill="white"/>
<path d="M146.64 54.1291H144.005V56.5731H146.941V57.3071H143.135V50.5291H146.796V51.2631H144.01V53.4051H146.645L146.64 54.1291Z" fill="white"/>
<path d="M148.078 57.3071V50.5291H149.033L151.205 53.9581C151.658 54.664 152.065 55.3989 152.422 56.1581L152.442 56.1481C152.361 55.2431 152.342 54.4181 152.342 53.3631V50.5291H153.167V57.3071H152.282L150.13 53.8681C149.662 53.1399 149.239 52.3842 148.863 51.6051L148.833 51.6151C148.883 52.4701 148.903 53.2841 148.903 54.4151V57.315L148.078 57.3071Z" fill="white"/>
<path d="M158.203 54.1291H155.563V56.5731H158.499V57.3071H154.693V50.5291H158.353V51.2631H155.563V53.4051H158.198L158.203 54.1291Z" fill="white"/>
<path d="M159.641 50.619C160.195 50.5201 160.758 50.4729 161.321 50.478C162.021 50.4067 162.722 50.6044 163.282 51.031C163.457 51.1952 163.596 51.395 163.687 51.6169C163.779 51.8389 163.823 52.0779 163.815 52.318C163.82 52.706 163.697 53.0849 163.467 53.397C163.236 53.7092 162.91 53.9374 162.538 54.047V54.077C162.81 54.1967 163.046 54.3862 163.222 54.6262C163.397 54.8662 163.506 55.1483 163.538 55.444C163.656 56.0788 163.831 56.7016 164.061 57.305H163.161C162.959 56.7811 162.807 56.2389 162.709 55.686C162.509 54.751 162.145 54.399 161.351 54.369H160.526V57.305H159.651L159.641 50.619ZM160.516 53.706H161.416C162.351 53.706 162.944 53.193 162.944 52.419C162.944 51.544 162.31 51.162 161.385 51.152C161.094 51.1435 160.804 51.1704 160.52 51.232L160.516 53.706Z" fill="white"/>
<path d="M166.196 55.175L165.496 57.3071H164.591L166.891 50.5291H167.947L170.26 57.3071H169.325L168.601 55.175H166.196ZM168.418 54.4911L167.754 52.5401C167.603 52.0971 167.502 51.6951 167.402 51.3031H167.382C167.282 51.7031 167.171 52.1181 167.04 52.5301L166.377 54.4911H168.418Z" fill="white"/>
<path d="M171.767 51.2731H169.705V50.5291H174.723V51.2731H172.652V57.3071H171.767V51.2731Z" fill="white"/>
<path d="M176.352 50.5291V57.3071H175.476V50.5291H176.352Z" fill="white"/>
<path d="M183.672 53.8481C183.672 56.1811 182.254 57.4181 180.525 57.4181C178.735 57.4181 177.478 56.0311 177.478 53.9781C177.478 51.8261 178.815 50.4191 180.626 50.4191C182.476 50.4191 183.672 51.8371 183.672 53.8481ZM178.413 53.9591C178.413 55.4071 179.197 56.7041 180.575 56.7041C181.953 56.7041 182.747 55.4271 182.747 53.8891C182.747 52.5411 182.047 51.1341 180.585 51.1341C179.123 51.1341 178.413 52.4701 178.413 53.9581V53.9591Z" fill="white"/>
<path d="M184.807 57.3071V50.5291H185.762L187.934 53.9581C188.387 54.6641 188.794 55.399 189.151 56.1581L189.171 56.1481C189.091 55.2431 189.071 54.4181 189.071 53.3631V50.5291H189.896V57.3071H189.007L186.856 53.8681C186.388 53.1399 185.965 52.3842 185.589 51.6051L185.558 51.6151C185.608 52.4701 185.628 53.2841 185.628 54.4151V57.315L184.807 57.3071Z" fill="white"/>
<path d="M195.686 50.5291H199.336V51.2631H196.56V53.5151H199.125V54.2391H196.56V57.3071H195.686V50.5291Z" fill="white"/>
<path d="M206.375 53.8481C206.375 56.1811 204.957 57.4181 203.228 57.4181C201.438 57.4181 200.181 56.0311 200.181 53.9781C200.181 51.8261 201.518 50.4191 203.328 50.4191C205.179 50.4191 206.375 51.8371 206.375 53.8481ZM201.116 53.9591C201.116 55.4071 201.9 56.7041 203.278 56.7041C204.656 56.7041 205.45 55.4271 205.45 53.8891C205.45 52.5411 204.75 51.1341 203.288 51.1341C201.826 51.1341 201.116 52.4701 201.116 53.9581V53.9591Z" fill="white"/>
<path d="M207.511 50.6191C208.065 50.5201 208.628 50.4729 209.191 50.4781C209.891 50.407 210.592 50.6047 211.152 51.0311C211.327 51.1953 211.465 51.3951 211.557 51.617C211.649 51.839 211.693 52.078 211.685 52.3181C211.69 52.7061 211.567 53.085 211.337 53.3971C211.106 53.7092 210.78 53.9374 210.408 54.0471V54.0771C210.68 54.1968 210.916 54.3862 211.092 54.6263C211.267 54.8663 211.376 55.1484 211.408 55.4441C211.526 56.0788 211.701 56.7017 211.931 57.3051H211.026C210.824 56.7811 210.672 56.239 210.574 55.6861C210.374 54.7511 210.01 54.3991 209.216 54.3691H208.391V57.3051H207.516L207.511 50.6191ZM208.386 53.7061H209.286C210.221 53.7061 210.814 53.1931 210.814 52.4191C210.814 51.5441 210.18 51.1621 209.256 51.1521C208.965 51.1436 208.675 51.1704 208.391 51.2321L208.386 53.7061Z" fill="white"/>
<path d="M217.063 56.2411C217.537 56.5257 218.079 56.6783 218.632 56.6831C219.532 56.6831 220.05 56.2111 220.05 55.5271C220.05 54.8941 219.688 54.5271 218.773 54.1791C217.667 53.7871 216.983 53.2141 216.983 52.2581C216.996 51.9897 217.065 51.727 217.184 51.4863C217.304 51.2456 217.471 51.0323 217.677 50.8595C217.883 50.6868 218.122 50.5584 218.38 50.4824C218.638 50.4065 218.908 50.3846 219.175 50.4181C219.695 50.3999 220.211 50.5141 220.675 50.7501L220.434 51.4641C220.038 51.2514 219.596 51.1407 219.147 51.1421C218.222 51.1421 217.87 51.6951 217.87 52.1581C217.87 52.7921 218.282 53.1031 219.217 53.4651C220.363 53.9071 220.947 54.4651 220.947 55.4561C220.947 56.5021 220.173 57.4071 218.574 57.4071C217.97 57.4148 217.374 57.266 216.844 56.9751L217.063 56.2411Z" fill="white"/>
<path d="M227.933 53.8481C227.933 56.1811 226.515 57.4181 224.786 57.4181C222.995 57.4181 221.739 56.0311 221.739 53.9781C221.739 51.8261 223.077 50.4191 224.887 50.4191C226.737 50.4191 227.933 51.8371 227.933 53.8481ZM222.674 53.9591C222.674 55.4071 223.458 56.7041 224.836 56.7041C226.214 56.7041 227.008 55.4271 227.008 53.8891C227.008 52.5411 226.308 51.1341 224.846 51.1341C223.384 51.1341 222.677 52.4701 222.677 53.9581L222.674 53.9591Z" fill="white"/>
<path d="M229.069 50.5291H229.944V56.5731H232.844V57.3071H229.069V50.5291Z" fill="white"/>
<path d="M234.327 50.5291V54.5411C234.327 56.0591 235.001 56.703 235.906 56.703C236.911 56.703 237.555 56.0391 237.555 54.5411V50.5291H238.44V54.4821C238.44 56.5631 237.34 57.4181 235.875 57.4181C234.488 57.4181 233.442 56.6241 233.442 54.5181V50.5291H234.327Z" fill="white"/>
<path d="M241.245 51.2731H239.184V50.5291H244.202V51.2731H242.13V57.3071H241.245V51.2731Z" fill="white"/>
<path d="M245.829 50.5291V57.3071H244.955V50.5291H245.829Z" fill="white"/>
<path d="M253.15 53.8481C253.15 56.1811 251.732 57.4181 250.003 57.4181C248.213 57.4181 246.956 56.0311 246.956 53.9781C246.956 51.8261 248.293 50.4191 250.103 50.4191C251.954 50.4191 253.15 51.8371 253.15 53.8481ZM247.891 53.9591C247.891 55.4071 248.675 56.7041 250.053 56.7041C251.431 56.7041 252.225 55.4271 252.225 53.8891C252.225 52.5411 251.525 51.1341 250.063 51.1341C248.601 51.1341 247.891 52.4701 247.891 53.9581V53.9591Z" fill="white"/>
<path d="M254.286 57.3071V50.5291H255.242L257.414 53.9581C257.867 54.6639 258.274 55.3989 258.631 56.1581L258.651 56.1481C258.571 55.2431 258.551 54.4181 258.551 53.3631V50.5291H259.376V57.3071H258.491L256.339 53.8681C255.872 53.1398 255.449 52.3841 255.072 51.6051L255.042 51.6151C255.092 52.4701 255.112 53.2841 255.112 54.4151V57.315L254.286 57.3071Z" fill="white"/>
<path d="M260.782 56.2411C261.256 56.5257 261.798 56.6783 262.351 56.6831C263.246 56.6831 263.769 56.2111 263.769 55.5271C263.769 54.8941 263.407 54.5271 262.492 54.1791C261.386 53.7871 260.702 53.2141 260.702 52.2581C260.715 51.9897 260.784 51.727 260.903 51.4863C261.023 51.2456 261.19 51.0323 261.396 50.8595C261.602 50.6868 261.841 50.5584 262.099 50.4824C262.357 50.4065 262.627 50.3846 262.894 50.4181C263.414 50.4 263.93 50.5142 264.394 50.7501L264.153 51.4641C263.757 51.2514 263.315 51.1407 262.866 51.1421C261.941 51.1421 261.589 51.6951 261.589 52.1581C261.589 52.7921 262.001 53.1031 262.936 53.4651C264.083 53.9071 264.666 54.4651 264.666 55.4561C264.666 56.5021 263.892 57.4071 262.292 57.4071C261.688 57.4147 261.092 57.2658 260.563 56.9751L260.782 56.2411Z" fill="white"/>
<path d="M265.88 48.9761H265.233V48.7421H266.809V48.9761H266.158V50.8761H265.88V48.9761Z" fill="white"/>
<path d="M268.84 49.9361C268.824 49.6361 268.806 49.2821 268.808 49.0171H268.799C268.726 49.2661 268.638 49.5321 268.531 49.8251L268.155 50.8581H267.946L267.602 49.8441C267.502 49.5441 267.415 49.2691 267.355 49.0171H267.349C267.343 49.2821 267.327 49.6391 267.308 49.9581L267.251 50.8711H266.989L267.138 48.7421H267.488L267.851 49.7721C267.94 50.0341 268.012 50.2721 268.066 50.4891H268.075C268.129 50.2741 268.205 50.0411 268.299 49.7721L268.678 48.7421H269.029L269.161 50.8711H268.893L268.84 49.9361Z" fill="white"/>
<path d="M273.461 17.4771C272.761 17.4771 272.077 17.2695 271.495 16.8806C270.913 16.4918 270.459 15.939 270.191 15.2924C269.924 14.6457 269.853 13.9341 269.99 13.2476C270.127 12.5611 270.464 11.9305 270.959 11.4356C271.454 10.9407 272.084 10.6036 272.771 10.467C273.457 10.3305 274.169 10.4006 274.815 10.6684C275.462 10.9363 276.015 11.3899 276.404 11.9719C276.792 12.5539 277 13.2381 277 13.9381C276.999 14.8763 276.626 15.7759 275.962 16.4393C275.299 17.1028 274.399 17.476 273.461 17.4771ZM273.461 10.7131C272.823 10.7131 272.2 10.9022 271.669 11.2566C271.139 11.6109 270.726 12.1146 270.481 12.7039C270.237 13.2932 270.174 13.9416 270.298 14.5672C270.422 15.1928 270.73 15.7674 271.181 16.2185C271.632 16.6695 272.206 16.9766 272.832 17.1011C273.457 17.2255 274.106 17.1617 274.695 16.9176C275.284 16.6735 275.788 16.2601 276.143 15.7298C276.497 15.1994 276.686 14.5759 276.686 13.9381C276.686 13.0825 276.346 12.2621 275.741 11.6569C275.137 11.0516 274.317 10.7111 273.461 10.7101V10.7131Z" fill="white"/>
<path d="M272.547 12.1801C272.808 12.1336 273.073 12.1115 273.338 12.1141C273.668 12.0803 273.998 12.1733 274.262 12.3741C274.344 12.4516 274.409 12.5457 274.452 12.6502C274.496 12.7546 274.516 12.8671 274.513 12.9801C274.515 13.1626 274.458 13.3409 274.35 13.4878C274.241 13.6347 274.088 13.7423 273.913 13.7941V13.8081C274.041 13.8651 274.151 13.9546 274.233 14.0676C274.316 14.1806 274.367 14.3131 274.382 14.4521C274.438 14.7509 274.52 15.0441 274.628 15.3281H274.196C274.101 15.0815 274.029 14.8263 273.983 14.5661C273.888 14.1261 273.718 13.9601 273.344 13.9461H272.955V15.3281H272.543L272.547 12.1801ZM272.959 13.6331H273.381C273.821 13.6331 274.101 13.3911 274.101 13.0271C274.101 12.6151 273.801 12.4351 273.367 12.4271C273.23 12.4232 273.094 12.4359 272.96 12.4651L272.959 13.6331Z" fill="white"/>
</svg>
