<svg width="74" height="83" viewBox="0 0 74 83" fill="none" xmlns="http://www.w3.org/2000/svg">
<path d="M36.999 47.5521C38.1771 47.5521 39.3288 47.2027 40.3084 46.5482C41.288 45.8936 42.0516 44.9632 42.5025 43.8747C42.9534 42.7862 43.0713 41.5885 42.8415 40.4329C42.6116 39.2774 42.0442 38.2159 41.2111 37.3828C40.378 36.5497 39.3166 35.9824 38.1611 35.7525C37.0055 35.5227 35.8078 35.6406 34.7193 36.0915C33.6308 36.5424 32.7004 37.3059 32.0458 38.2855C31.3913 39.2652 31.0419 40.4169 31.0419 41.5951C31.0438 43.1744 31.672 44.6885 32.7888 45.8053C33.9055 46.922 35.4196 47.5502 36.999 47.5521ZM36.999 37.7341C37.7626 37.7341 38.509 37.9605 39.144 38.3848C39.7789 38.809 40.2737 39.4121 40.566 40.1176C40.8582 40.8231 40.9347 41.5994 40.7857 42.3483C40.6367 43.0973 40.269 43.7852 39.7291 44.3252C39.1891 44.8652 38.5011 45.2329 37.7521 45.3819C37.0032 45.5309 36.2269 45.4544 35.5214 45.1622C34.8159 44.87 34.2129 44.3751 33.7886 43.7401C33.3644 43.1052 33.1379 42.3587 33.1379 41.5951C33.1389 40.5714 33.5461 39.59 34.27 38.8661C34.9938 38.1423 35.9753 37.7351 36.999 37.7341Z" fill="#EC660B"/>
<path d="M73.501 40.8741C59.251 25.8511 47.536 23.7801 37.001 23.7801C26.466 23.7801 14.749 25.8511 0.500977 40.8741C0.316126 41.0688 0.213013 41.3271 0.213013 41.5956C0.213013 41.8641 0.316126 42.1223 0.500977 42.3171C14.751 57.3411 26.466 59.411 37.001 59.411C47.536 59.411 59.252 57.3401 73.501 42.3171C73.6858 42.1223 73.7888 41.8641 73.7888 41.5956C73.7888 41.3271 73.6858 41.0688 73.501 40.8741ZM2.70996 41.5951C11.803 32.2291 19.793 28.335 27.085 26.8C24.6532 28.4267 22.6598 30.6277 21.2814 33.2083C19.9029 35.7888 19.1818 38.6694 19.1818 41.5951C19.1818 44.5207 19.9029 47.4013 21.2814 49.9818C22.6598 52.5624 24.6532 54.7634 27.085 56.3901C19.793 54.8551 11.803 50.962 2.70996 41.596V41.5951ZM36.9989 25.875C40.108 25.875 43.1474 26.797 45.7325 28.5243C48.3177 30.2517 50.3325 32.7068 51.5223 35.5793C52.7121 38.4517 53.0234 41.6125 52.4169 44.6619C51.8103 47.7113 50.3131 50.5123 48.1146 52.7108C45.9161 54.9093 43.1152 56.4064 40.0658 57.013C37.0164 57.6195 33.8556 57.3083 30.9832 56.1184C28.1107 54.9286 25.6556 52.9137 23.9282 50.3286C22.2009 47.7435 21.2789 44.7042 21.2789 41.5951C21.284 37.4275 22.9418 33.4321 25.8888 30.4853C28.8358 27.5384 32.8313 25.8808 36.9989 25.8761V25.875ZM46.9139 56.3901C49.3457 54.7634 51.3389 52.5624 52.7174 49.9818C54.0959 47.4013 54.817 44.5207 54.817 41.5951C54.817 38.6694 54.0959 35.7888 52.7174 33.2083C51.3389 30.6277 49.3457 28.4267 46.9139 26.8C54.2059 28.335 62.195 32.2291 71.288 41.5951C62.196 50.9621 54.2059 54.855 46.9139 56.391V56.3901Z" fill="#EC660B"/>
<path d="M36.9999 13.1901C37.2779 13.1901 37.5444 13.0797 37.7409 12.8831C37.9374 12.6866 38.0479 12.42 38.0479 12.1421V2.04807C38.0479 1.76959 37.9373 1.50252 37.7404 1.3056C37.5435 1.10869 37.2763 0.998047 36.9979 0.998047C36.7194 0.998047 36.4523 1.10869 36.2554 1.3056C36.0585 1.50252 35.9479 1.76959 35.9479 2.04807V12.1421C35.9479 12.28 35.9751 12.4166 36.028 12.544C36.0809 12.6714 36.1585 12.7872 36.2563 12.8845C36.354 12.9819 36.47 13.059 36.5976 13.1114C36.7252 13.1639 36.862 13.1906 36.9999 13.1901Z" fill="#EC660B"/>
<path d="M13.6559 18.4101C13.8578 18.5873 14.12 18.6802 14.3884 18.6697C14.6568 18.6591 14.911 18.5459 15.0983 18.3534C15.2857 18.1609 15.3919 17.9039 15.3952 17.6353C15.3985 17.3667 15.2985 17.1071 15.1159 16.9101L7.72491 9.74006C7.52274 9.56488 7.26122 9.47365 6.99395 9.48505C6.72668 9.49645 6.47393 9.60964 6.28741 9.8014C6.10089 9.99316 5.99477 10.249 5.99078 10.5165C5.98679 10.7839 6.08521 11.0428 6.26592 11.2401L13.6559 18.4101Z" fill="#EC660B"/>
<path d="M59.6239 18.706C59.8971 18.7053 60.1591 18.5976 60.3539 18.4061L67.7449 11.236C67.8527 11.1426 67.9403 11.0281 68.0023 10.8996C68.0644 10.7711 68.0995 10.6312 68.1056 10.4887C68.1117 10.3461 68.0886 10.2038 68.0377 10.0705C67.9869 9.93713 67.9093 9.81561 67.8098 9.71331C67.7103 9.61102 67.591 9.53012 67.4591 9.47558C67.3273 9.42104 67.1857 9.39401 67.043 9.39614C66.9003 9.39827 66.7595 9.42952 66.6293 9.48797C66.4991 9.54642 66.3823 9.63083 66.2859 9.73605L58.8949 16.9061C58.7453 17.0513 58.6424 17.2378 58.5994 17.4419C58.5564 17.6459 58.5752 17.8582 58.6535 18.0514C58.7317 18.2447 58.8658 18.4103 59.0387 18.5269C59.2116 18.6435 59.4154 18.7059 59.6239 18.706Z" fill="#EC660B"/>
<path d="M36.9999 70.001C36.722 70.001 36.4554 70.1115 36.2589 70.308C36.0623 70.5045 35.9518 70.7711 35.9518 71.0491V81.1431C35.9518 81.4216 36.0625 81.6886 36.2595 81.8855C36.4564 82.0824 36.7234 82.1931 37.0019 82.1931C37.2804 82.1931 37.5474 82.0824 37.7443 81.8855C37.9412 81.6886 38.0519 81.4216 38.0519 81.1431V71.0491C38.0519 70.9111 38.0247 70.7745 37.9717 70.6471C37.9188 70.5197 37.8413 70.404 37.7436 70.3066C37.6459 70.2092 37.5298 70.1321 37.4022 70.0797C37.2745 70.0272 37.1379 70.0005 36.9999 70.001Z" fill="#EC660B"/>
<path d="M13.6559 64.7811L6.26495 71.9511C6.08423 72.1483 5.98569 72.4072 5.98968 72.6747C5.99367 72.9422 6.09979 73.198 6.28631 73.3897C6.47283 73.5815 6.72571 73.6947 6.99298 73.7061C7.26024 73.7175 7.52176 73.6262 7.72393 73.4511L15.1149 66.2811C15.2975 66.0841 15.3975 65.8245 15.3942 65.5559C15.3909 65.2873 15.2846 65.0302 15.0972 64.8377C14.9099 64.6452 14.6558 64.532 14.3874 64.5214C14.119 64.5109 13.8568 64.6039 13.655 64.7811H13.6559Z" fill="#EC660B"/>
<path d="M60.3539 64.7811C60.2575 64.6758 60.1406 64.5914 60.0104 64.533C59.8802 64.4745 59.7395 64.4433 59.5968 64.4412C59.4542 64.439 59.3126 64.466 59.1807 64.5206C59.0488 64.5751 58.9295 64.656 58.83 64.7583C58.7305 64.8606 58.6528 64.9821 58.602 65.1155C58.5511 65.2488 58.528 65.3911 58.5341 65.5337C58.5402 65.6763 58.5753 65.8161 58.6374 65.9446C58.6994 66.0731 58.7871 66.1876 58.8949 66.2811L66.2859 73.451C66.3823 73.5563 66.4991 73.6407 66.6293 73.6992C66.7595 73.7576 66.9003 73.7888 67.043 73.7909C67.1857 73.7931 67.3273 73.7661 67.4591 73.7115C67.591 73.657 67.7104 73.5761 67.8099 73.4738C67.9093 73.3715 67.9869 73.25 68.0378 73.1166C68.0886 72.9833 68.1117 72.841 68.1056 72.6984C68.0995 72.5558 68.0644 72.416 68.0024 72.2875C67.9403 72.159 67.8528 72.0445 67.7449 71.951L60.3539 64.7811Z" fill="#EC660B"/>
</svg>
